PathFileType	4	(X/Y/Z)	/Users/itak/Documents/Research/Walk-IL/dataset/trc/00055_00006.trc
DataRate	CameraRate	NumFrames	NumMarkers	Units	OrigDataRate	OrigDataStartFrame	OrigNumFrames
100.000000	100.000000	4	53	mm	100.000000	363	485
Frame#	Time	RPSI			LPSI			L3			STRN			T10			C7			CLAV			RBAK			LBAK			LSHO			LUPA			LAEL			LAOL			LWTS			LWPS			LFRA			LHPS			LHTS			RSHO			RUPA			RAEL			RAOL			RWTS			RWPS			RFRA			RIFD			RHTS			RHPS			RBHD			LFHD			RFHD			LBHD			LHIP			RHIP			RASI			LASI			LKNE			LTHI			LANK			LTIP			LTOE			LMT1			LMT5			LHEE			RKNE			RTHI			RANK			RTIP			RTOE			RMT1			RMT5			RHEE			LIFD			
		X1	Y1	Z1	X2	Y2	Z2	X3	Y3	Z3	X4	Y4	Z4	X5	Y5	Z5	X6	Y6	Z6	X7	Y7	Z7	X8	Y8	Z8	X9	Y9	Z9	X10	Y10	Z10	X11	Y11	Z11	X12	Y12	Z12	X13	Y13	Z13	X14	Y14	Z14	X15	Y15	Z15	X16	Y16	Z16	X17	Y17	Z17	X18	Y18	Z18	X19	Y19	Z19	X20	Y20	Z20	X21	Y21	Z21	X22	Y22	Z22	X23	Y23	Z23	X24	Y24	Z24	X25	Y25	Z25	X26	Y26	Z26	X27	Y27	Z27	X28	Y28	Z28	X29	Y29	Z29	X30	Y30	Z30	X31	Y31	Z31	X32	Y32	Z32	X33	Y33	Z33	X34	Y34	Z34	X35	Y35	Z35	X36	Y36	Z36	X37	Y37	Z37	X38	Y38	Z38	X39	Y39	Z39	X40	Y40	Z40	X41	Y41	Z41	X42	Y42	Z42	X43	Y43	Z43	X44	Y44	Z44	X45	Y45	Z45	X46	Y46	Z46	X47	Y47	Z47	X48	Y48	Z48	X49	Y49	Z49	X50	Y50	Z50	X51	Y51	Z51	X52	Y52	Z52	X53	Y53	Z53	

364	3.63	-851.7105712890625	1018.634643554688	-100.6210327148438	-874.7050170898438	1008.391418457031	-274.9743347167969	-855.8032836914062	1076.296997070312	-190.2208862304688	-578.66357421875	1248.079956054688	-208.7848663330078	-852.4940185546875	1210.970581054688	-193.7549896240234	-768.3215942382812	1470.35302734375	-207.3114624023438	-598.2825927734375	1364.832885742188	-212.9978942871094	-837.8683471679688	1339.510009765625	-124.5074234008789	-798.8731689453125	1432.763427734375	-306.2620239257812	-699.7544555664062	1425.594970703125	-382.9440307617188	-727.9674072265625	1299.49658203125	-456.6373901367188	-711.8091430664062	1085.864501953125	-485.5055847167969	-768.5195922851562	1068.451171875	-396.6367797851562	-601.98388671875	853.8409423828125	-425.5903930664062	-663.8598022460938	837.3833618164062	-480.7294921875	-685.4912719726562	977.5195922851562	-493.913330078125	-623.287841796875	758.77490234375	-476.5771789550781	-575.4111938476562	772.3629150390625	-428.8616027832031	-697.88330078125	1431.633422851562	-35.25288391113281	-709.6105346679688	1366.03125	30.64772415161133	-743.958740234375	1108.72314453125	97.33834838867188	-736.8137817382812	1076.742309570312	3.175249099731445	-574.9793701171875	877.4629516601562	44.07169723510742	-634.6504516601562	848.7139282226562	102.6624298095703	-722.5848388671875	1026.06884765625	109.4050750732422	-539.77099609375	692.78857421875	18.17410087585449	-535.1172485351562	779.7050170898438	37.20397186279297	-583.5667114257812	765.9493408203125	95.296142578125	-708.5159912109375	1646.250366210938	-275.5613403320312	-540.0464477539062	1661.014282226562	-141.5821533203125	-531.3610229492188	1666.033325195312	-267.2073059082031	-709.2221069335938	1632.926635742188	-137.9631958007812	-775.3197631835938	946.205810546875	-373.2356262207031	-789.5550537109375	939.16015625	-27.47668647766113	-665.2347412109375	947.0504150390625	-53.71174240112305	-664.9072265625	949.5038452148438	-319.0552978515625	-554.4469604492188	523.9390869140625	-326.4671325683594	-634.0894165039062	641.2516479492188	-373.1182250976562	-528.0682373046875	49.77565765380859	-350.7326049804688	-545.2571411132812	275.5827026367188	-353.1733703613281	-331.1863708496094	100.2140731811523	-347.3596496582031	-377.7691345214844	93.27761840820312	-293.6951599121094	-424.3052368164062	59.4186897277832	-388.3516235351562	-579.3344116210938	38.63240814208984	-274.3402709960938	-761.1195678710938	490.4397277832031	-79.14379119873047	-725.2509155273438	758.236572265625	-34.27371978759766	-964.5051879882812	46.45062255859375	-111.5471649169922	-810.2059936523438	370.7413635253906	-80.07987213134766	-750.994384765625	43.15670394897461	-152.0331115722656	-810.9891357421875	46.18996429443359	-189.5922393798828	-837.7877807617188	49.76999282836914	-96.53034210205078	-1013.614318847656	52.70597457885742	-168.7584838867188	-577.9747314453125	671.9515991210938	-399.8889465332031	
365	3.64	-858.0400390625	1019.668334960938	-99.56397247314453	-881.4484252929688	1009.2724609375	-273.7935791015625	-862.5430297851562	1077.472534179688	-189.3204040527344	-585.3419189453125	1249.427001953125	-208.0461120605469	-859.3120727539062	1212.277099609375	-193.1943511962891	-775.0233764648438	1471.582153320312	-206.8184967041016	-605.0997314453125	1366.155151367188	-212.2450103759766	-844.6124877929688	1340.78564453125	-124.0150756835938	-805.4635620117188	1433.991943359375	-305.8466491699219	-706.2191162109375	1426.783569335938	-382.3822326660156	-733.9446411132812	1300.445678710938	-455.8870544433594	-717.43310546875	1086.717895507812	-483.9598388671875	-774.1051635742188	1069.442504882812	-395.1382446289062	-607.318115234375	854.9315185546875	-423.3585815429688	-669.2926025390625	838.254638671875	-478.5324401855469	-690.8215942382812	978.3529052734375	-492.0172729492188	-628.3628540039062	759.7269897460938	-474.1340026855469	-580.7254638671875	773.4439086914062	-426.4613342285156	-704.7252807617188	1432.947875976562	-34.61826324462891	-716.5983276367188	1367.385864257812	31.28047561645508	-751.3018188476562	1110.132080078125	97.93916320800781	-744.1163940429688	1078.089599609375	3.804199695587158	-583.01806640625	878.2333374023438	45.08448791503906	-643.0476684570312	849.755615234375	103.7067413330078	-730.163330078125	1027.479248046875	110.1081390380859	-548.6614990234375	693.2805786132812	19.57770729064941	-543.6839599609375	780.2203979492188	38.44690704345703	-592.2122192382812	766.7680053710938	96.55992889404297	-715.1317138671875	1647.577514648438	-274.8159484863281	-546.6849975585938	1662.1865234375	-140.7883758544922	-537.9371337890625	1667.258056640625	-266.3675537109375	-715.838134765625	1634.195190429688	-137.2254943847656	-782.3076171875	947.4367065429688	-372.3856811523438	-795.555419921875	940.3021240234375	-26.5396614074707	-671.1300048828125	948.5241088867188	-53.09920883178711	-671.648681640625	950.9205932617188	-318.4300231933594	-559.2599487304688	525.27685546875	-325.9998168945312	-638.8635864257812	643.1480712890625	-372.5790710449219	-542.4677124023438	50.44534683227539	-350.9888305664062	-554.7379150390625	276.2856140136719	-353.0618896484375	-344.661865234375	97.45365142822266	-348.3343200683594	-391.1178588867188	91.22200775146484	-294.4434509277344	-438.802490234375	58.65126800537109	-389.1003112792969	-593.5096435546875	39.91070556640625	-274.4094848632812	-764.7529296875	491.5218505859375	-78.92731475830078	-730.1693115234375	759.330322265625	-33.7812385559082	-964.6777954101562	46.16548156738281	-111.5162353515625	-812.7901000976562	371.3517761230469	-80.0679931640625	-751.103515625	43.27182769775391	-152.1248474121094	-811.0486450195312	46.07666015625	-189.6847534179688	-837.9339599609375	49.893310546875	-96.61638641357422	-1013.795715332031	51.99726486206055	-168.7613067626953	-582.7691040039062	673.2267456054688	-397.2900390625	
366	3.65	-864.1715087890625	1020.842224121094	-98.595947265625	-887.9423828125	1010.328247070312	-272.6808166503906	-869.121826171875	1078.808227539062	-188.5408172607422	-591.8489379882812	1250.94091796875	-207.4000701904297	-865.9349365234375	1213.70947265625	-192.6983795166016	-781.5756225585938	1472.932861328125	-206.4268035888672	-611.7686767578125	1367.657104492188	-211.574462890625	-851.2138061523438	1342.182373046875	-123.6301803588867	-811.8896484375	1435.382568359375	-305.5340576171875	-712.4916381835938	1428.185668945312	-381.9063415527344	-739.7073364257812	1301.64013671875	-455.2657470703125	-722.8500366210938	1087.80419921875	-482.4407653808594	-779.5040283203125	1070.70263671875	-393.6909790039062	-612.6262817382812	856.1879272460938	-421.125244140625	-674.6221923828125	839.3485717773438	-476.3817443847656	-696.0172119140625	979.4149169921875	-490.1568603515625	-633.4548950195312	760.8634033203125	-471.723388671875	-586.0062255859375	774.6998291015625	-424.0587158203125	-711.4219970703125	1434.453247070312	-34.09406280517578	-723.4561157226562	1368.954711914062	31.81640625	-758.5590209960938	1111.730590820312	98.31607055664062	-751.2383422851562	1079.663696289062	4.216880321502686	-591.0248413085938	879.0767822265625	46.02607727050781	-651.4686889648438	850.9479370117188	104.6433715820312	-737.7109375	1029.074096679688	110.5913467407227	-557.6768188476562	693.8253784179688	21.01111221313477	-552.3136596679688	780.789794921875	39.70998764038086	-600.9830932617188	767.6959228515625	97.78514099121094	-721.66552734375	1649.040161132812	-274.1494750976562	-553.2050170898438	1663.505981445312	-140.0707244873047	-544.4049072265625	1668.636840820312	-265.6019287109375	-722.3548583984375	1635.599609375	-136.5812835693359	-789.0956420898438	948.849609375	-371.6109008789062	-801.369873046875	941.5732421875	-25.67100715637207	-676.85009765625	950.115234375	-52.54072189331055	-678.1788330078125	952.5045776367188	-317.8748474121094	-564.0303344726562	526.6759643554688	-325.5955200195312	-643.5549926757812	645.1746215820312	-371.889404296875	-557.8999633789062	51.23679351806641	-351.24462890625	-564.7623901367188	277.0394897460938	-352.9859313964844	-359.2372131347656	94.69953155517578	-349.4655151367188	-405.44482421875	89.150146484375	-295.2871398925781	-454.3630065917969	57.93180847167969	-389.9392700195312	-608.641357421875	41.34161758422852	-274.4478149414062	-768.3783569335938	492.7134094238281	-78.65929412841797	-735.0130615234375	760.5802001953125	-33.30523300170898	-964.85400390625	45.94853210449219	-111.4357986450195	-815.3755493164062	372.08056640625	-80.03054046630859	-751.24072265625	43.4168701171875	-152.1972961425781	-811.1323852539062	46.00039672851562	-189.7353057861328	-838.0950927734375	50.06085968017578	-96.65667724609375	-1013.953979492188	51.41114044189453	-168.6800994873047	-587.8294067382812	674.595703125	-394.7128295898438	
367	3.66	-870.1029663085938	1022.103088378906	-97.70720672607422	-894.1724243164062	1011.536437988281	-271.6347351074219	-875.5319213867188	1080.245849609375	-187.8481903076172	-598.181884765625	1252.58447265625	-206.835693359375	-872.3565673828125	1215.20751953125	-192.2530517578125	-787.9940185546875	1474.359985351562	-206.1270599365234	-618.2887573242188	1369.299194335938	-210.9842834472656	-857.6754760742188	1343.644897460938	-123.3453598022461	-818.16796875	1436.881103515625	-305.3096313476562	-718.5878295898438	1429.75830078125	-381.5055236816406	-745.2819213867188	1303.039306640625	-454.7686157226562	-728.0588989257812	1089.0830078125	-480.9598693847656	-784.7546997070312	1072.189208984375	-392.3161926269531	-617.8992309570312	857.5848388671875	-418.8855895996094	-679.812744140625	840.633056640625	-474.2808227539062	-701.0830078125	980.671875	-488.3455505371094	-638.5446166992188	762.15234375	-469.341796875	-591.2335815429688	776.1058349609375	-421.6410217285156	-717.9937744140625	1436.102416992188	-33.67668914794922	-730.1905517578125	1370.6953125	32.26458358764648	-765.7285766601562	1113.4765625	98.4952392578125	-758.1820068359375	1081.426635742188	4.441474437713623	-598.9888305664062	879.9691772460938	46.88302993774414	-659.88232421875	852.2655639648438	105.4711685180664	-745.2213134765625	1030.811401367188	110.8752288818359	-566.7986450195312	694.406494140625	22.43699073791504	-560.9825439453125	781.3916015625	40.96191787719727	-609.8408813476562	768.7105102539062	98.94876861572266	-728.1246337890625	1650.60400390625	-273.5574951171875	-559.6156616210938	1664.927734375	-139.4247283935547	-550.7728271484375	1670.127197265625	-264.9116516113281	-728.7854614257812	1637.103637695312	-136.0238647460938	-795.6354370117188	950.4103393554688	-370.9012756347656	-807.0094604492188	942.9066772460938	-24.86686515808105	-682.409423828125	951.7568359375	-52.0192985534668	-684.4910888671875	954.208251953125	-317.3767700195312	-568.8064575195312	528.0872802734375	-325.2536926269531	-648.2252197265625	647.2587280273438	-371.0583190917969	-574.2350463867188	52.16596984863281	-351.5213317871094	-575.3089599609375	277.8499450683594	-352.9588012695312	-374.8221435546875	92.01904296875	-350.7707214355469	-420.6649475097656	87.11438751220703	-296.2512512207031	-470.8644714355469	57.29168701171875	-390.8749389648438	-624.6312255859375	42.94500732421875	-274.4819641113281	-772.0755004882812	493.9605102539062	-78.39318084716797	-739.8289184570312	761.8994140625	-32.85187149047852	-965.0516967773438	45.77589797973633	-111.340690612793	-818.023193359375	372.8895263671875	-79.98995971679688	-751.4110717773438	43.59341049194336	-152.2602386474609	-811.2670288085938	45.95846939086914	-189.7668914794922	-838.2943115234375	50.27435302734375	-96.67760467529297	-1014.112365722656	50.88827896118164	-168.5605010986328	-593.16943359375	676.0321655273438	-392.1464233398438	
